<svg width="880" height="614" xmlns="http://www.w3.org/2000/svg" xmlns:xlink="http://www.w3.org/1999/xlink" xml:space="preserve" overflow="hidden"><g transform="translate(-1760 -930)"><g><path d="M2314.03 934 2503 934C2503 1045.35 2418.39 1135.62 2314.03 1135.62ZM2190.41 934 2190.41 934.001 2314.03 934.001 2314.03 1135.62 2254.97 1135.62 2254.97 1339.38 2254.97 1339.38C2254.97 1450.73 2170.37 1541 2066 1541L2066 1339.38 2066 1066.74C2066 1002.59 2108.65 949.074 2165.34 936.697L2189.62 934.086 2189.62 934.001 2190.4 934.001Z" fill="#BFA159" fill-rule="evenodd" fill-opacity="1"/><rect x="2066" y="1254" width="119" height="36.0001" fill="#4A6FA5" fill-opacity="1"/><path d="M2121 1280 2159 1280 2159 1513.59 2139.73 1524.78 2121 1531Z" fill="#4A6FA5" fill-rule="evenodd" fill-opacity="1"/><path d="M1887 1050.83C1887 1047.61 1889.61 1045 1892.83 1045L2138.17 1045C2141.39 1045 2144 1047.61 2144 1050.83L2144 1074.17C2144 1077.39 2141.39 1080 2138.17 1080L1892.83 1080C1889.61 1080 1887 1077.39 1887 1074.17Z" fill="#4A6FA5" fill-rule="evenodd" fill-opacity="1"/><path d="M2253 1050.83C2253 1047.61 2255.61 1045 2258.83 1045L2504.17 1045C2507.39 1045 2510 1047.61 2510 1050.83L2510 1074.17C2510 1077.39 2507.39 1080 2504.17 1080L2258.83 1080C2255.61 1080 2253 1077.39 2253 1074.17Z" fill="#23395B" fill-rule="evenodd" fill-opacity="1"/><path d="M2121 1063C2121 1017.71 2157.49 981 2202.5 981 2247.51 981 2284 1017.71 2284 1063 2284 1108.29 2247.51 1145 2202.5 1145 2157.49 1145 2121 1108.29 2121 1063ZM2159.24 1063C2159.24 1087.17 2178.61 1106.76 2202.5 1106.76 2226.39 1106.76 2245.76 1087.17 2245.76 1063 2245.76 1038.83 2226.39 1019.24 2202.5 1019.24 2178.61 1019.24 2159.24 1038.83 2159.24 1063Z" fill="#4A6FA5" fill-rule="evenodd" fill-opacity="1"/><path d="M2172 1271.5C2172 1226.49 2208.71 1190 2254 1190 2299.29 1190 2336 1226.49 2336 1271.5 2336 1316.51 2299.29 1353 2254 1353 2208.71 1353 2172 1316.51 2172 1271.5ZM2210.24 1271.5C2210.24 1295.39 2229.83 1314.76 2254 1314.76 2278.17 1314.76 2297.76 1295.39 2297.76 1271.5 2297.76 1247.61 2278.17 1228.24 2254 1228.24 2229.83 1228.24 2210.24 1247.61 2210.24 1271.5Z" fill="#23395B" fill-rule="evenodd" fill-opacity="1"/><path d="M1857.86 1069.18 1892.68 1083.57 1810.45 1282.63 1775.62 1268.25Z" fill="#4A6FA5" fill-rule="nonzero" fill-opacity="1"/><rect x="0" y="0" width="37.6772" height="215.152" fill="#4A6FA5" fill-opacity="1" transform="matrix(-0.924241 0.38181 0.38181 0.924241 1926.42 1066.71)"/><path d="M1892.5 1045C1913.21 1045 1930 1062.61 1930 1084.32 1930 1095.18 1925.8 1105.01 1919.02 1112.13L1914.96 1115 1914.96 1085.99 1866.5 1085.99 1866.5 1112.49 1865.98 1112.13C1859.2 1105.01 1855 1095.18 1855 1084.32 1855 1062.61 1871.79 1045 1892.5 1045Z" fill="#4A6FA5" fill-rule="evenodd" fill-opacity="1"/><path d="M1816.18 1292.74C1816.18 1318.98 1850.57 1340.26 1893 1340.26 1935.43 1340.26 1969.82 1318.98 1969.82 1292.74ZM1783.12 1254 1893 1254 2002.88 1254C2064.68 1310.35 1971.43 1379 1894.11 1379L1893 1378.88 1891.89 1379C1814.57 1379 1721.32 1310.35 1783.12 1254Z" fill="#BFA159" fill-rule="evenodd" fill-opacity="1"/><path d="M2473.63 1066.71 2508.45 1081.1 2426.22 1280.16 2391.39 1265.78Z" fill="#23395B" fill-rule="nonzero" fill-opacity="1"/><rect x="0" y="0" width="37.6772" height="215.152" fill="#23395B" fill-opacity="1" transform="matrix(-0.924241 0.38181 0.38181 0.924241 2541.04 1067.86)"/><path d="M2507.5 1045C2528.21 1045 2545 1062.72 2545 1084.58 2545 1095.51 2540.8 1105.4 2534.02 1112.57L2530.59 1115 2530.59 1085.12 2482.14 1085.12 2482.14 1113.39 2480.98 1112.57C2474.2 1105.4 2470 1095.51 2470 1084.58 2470 1062.72 2486.79 1045 2507.5 1045Z" fill="#23395B" fill-rule="evenodd" fill-opacity="1"/><path d="M2430.18 1292.74C2430.18 1318.98 2464.57 1340.26 2507 1340.26 2549.43 1340.26 2583.82 1318.98 2583.82 1292.74ZM2397.12 1254 2507 1254 2616.88 1254C2678.68 1310.35 2585.43 1379 2508.11 1379L2507 1378.88 2505.89 1379C2428.57 1379 2335.32 1310.35 2397.12 1254Z" fill="#BFA159" fill-rule="evenodd" fill-opacity="1"/></g></g></svg>